PathFileType	4	(X/Y/Z)	D:\TRACE\v60_Jaco2_6-2-23\JustArmDRS_Motion1_3-v60.trc
DataRate	CameraRate	NumFrames	NumMarkers	Units	OrigDataRate	OrigDataStartFrame	OrigNumFrames
100.00	100.00	      17	9	mm	100.00	2537	      6763
Frame#	Time	front left toe			Front right toe			aft left toe			aft right toe			Arm			FL body			FR body			AL Body			AR Body			
		X1	Y1	Z1	X2	Y2	Z2	X3	Y3	Z3	X4	Y4	Z4	X5	Y5	Z5	X6	Y6	Z6	X7	Y7	Z7	X8	Y8	Z8	X9	Y9	Z9	

2537	25.360	-249.90331	18.41636	-166.73837	158.22125	15.70508	-211.59665	-183.45816	21.16009	437.59662	219.02927	23.01607	425.60638	-60.22914	1139.16504	-594.01447	-137.63286	573.84790	-316.40991	22.00595	576.04114	-333.85867	-35.18600	592.26318	623.00079	120.82874	588.94635	607.67603	
2538	25.370	-250.23549	18.48619	-166.59882	158.04326	15.83985	-211.64326	-183.76866	20.89094	437.68518	218.81125	22.83933	425.68604	-61.29781	1139.48364	-593.45221	-137.69824	573.73676	-315.88953	21.07997	576.07996	-333.24863	-35.98567	592.31018	623.59857	120.60709	589.01379	607.79980	
2539	25.380	-250.46678	18.54858	-166.51457	157.71239	16.01444	-211.67703	-184.01111	20.44342	437.87561	218.63245	22.67262	425.76904	-61.76309	1139.66394	-592.94611	-138.61127	573.92407	-315.63693	20.45041	576.20477	-332.79376	-36.83158	592.05768	623.49347	119.26746	588.22626	608.14362	
2540	25.390	-250.70450	18.67934	-166.43784	157.19081	16.20406	-211.50357	-184.30479	20.10592	438.03598	218.33446	22.38384	425.96658	-62.96164	1139.82922	-592.27893	-139.11859	573.90558	-315.31097	20.15118	576.99072	-333.26962	-37.62879	591.70654	623.93683	119.06154	588.56000	608.72772	
2541	25.400	-250.82077	18.68378	-166.42732	157.01552	16.38361	-211.39331	-184.43333	19.70846	438.15829	218.25426	22.22420	426.19339	-63.68727	1139.85864	-591.82977	-139.51007	573.84631	-315.05490	19.52556	577.05890	-333.03354	-37.69401	591.20435	624.09674	118.46243	588.28131	608.94305	
2542	25.410	-250.97942	18.73997	-166.32349	156.93681	16.58777	-211.31592	-184.71542	19.42178	438.27121	218.19218	22.10755	426.31458	-64.64346	1140.22363	-591.38824	-140.82787	574.30884	-315.00586	18.64709	577.07178	-332.33963	-38.51108	591.16919	624.61682	118.01226	588.02747	608.82269	
2543	25.420	-251.19208	18.86929	-166.10439	156.78018	16.65325	-211.19072	-184.85648	19.21572	438.34818	218.12077	21.93368	426.39465	-65.42302	1140.47986	-590.92438	-141.35040	574.28088	-314.71078	17.95640	577.21283	-332.03210	-38.87800	590.83997	624.87366	117.43456	587.99518	609.20831	
2544	25.430	-251.24396	18.93155	-165.97292	156.68407	16.73335	-211.11438	-185.08414	18.95739	438.44907	217.93259	21.60716	426.45987	-66.34404	1140.83679	-590.49512	-141.55698	574.19916	-314.56277	18.23253	577.35486	-332.22977	-39.54426	590.53357	625.11353	116.46707	587.66046	609.47968	
2545	25.440	-251.33263	18.97688	-165.85132	156.58998	16.91688	-211.06404	-185.19830	18.54802	438.65729	217.95258	21.46236	426.52921	-66.67557	1141.00391	-589.94122	-142.14217	574.22552	-314.26089	17.78067	577.38666	-331.97168	-39.88239	590.14227	624.97644	116.25208	587.47089	609.69733	
2546	25.450	-251.33397	19.02555	-165.77972	156.48959	17.18996	-210.92093	-185.35472	18.23663	438.76535	217.89143	21.22906	426.59827	-67.57300	1141.20947	-589.29010	-142.66283	574.41663	-314.02322	17.27141	577.54901	-331.48267	-40.16295	589.94427	625.25037	115.87376	587.22296	610.05884	
2547	25.460	-251.36357	19.08228	-165.75191	156.35831	17.38606	-210.79422	-185.45952	18.14258	438.74442	217.74303	20.86416	426.61890	-68.09697	1141.31519	-588.86615	-143.03949	574.57336	-313.67691	16.10140	577.57703	-330.90823	-40.74730	589.60608	625.95837	115.26218	586.82269	610.31342	
2548	25.470	-251.35675	19.14861	-165.70631	156.27489	17.58462	-210.66859	-185.45636	18.04355	438.74915	217.56448	20.62504	426.64542	-68.64477	1141.57788	-588.32288	-143.34769	574.74182	-313.40848	15.34905	577.82410	-330.63165	-41.05508	589.37915	626.27460	115.24074	586.79388	610.39520	
2549	25.480	-251.43123	19.29104	-165.57651	156.33337	17.78880	-210.52209	-185.44025	17.79281	438.77982	217.54764	20.44599	426.70810	-69.27761	1141.95850	-588.06799	-143.78946	574.95251	-313.15262	15.02563	577.93219	-330.42920	-41.27610	589.25293	626.41431	114.97010	586.60931	610.66327	
2550	25.490	-251.49117	19.37609	-165.47531	156.15222	17.89511	-210.46086	-185.39609	17.39857	438.87311	217.56821	20.26510	426.74524	-69.82828	1142.40137	-587.53241	-143.93517	574.97943	-312.95248	15.37360	578.48926	-331.05386	-41.72432	589.14557	626.71552	114.63933	586.46143	610.94397	
2551	25.500	-251.52185	19.49739	-165.31595	156.21892	18.14626	-210.41225	-185.40942	17.12225	439.02258	217.61502	20.03228	426.78134	-70.36941	1142.59998	-586.93756	-144.52109	575.24689	-312.52545	15.01865	578.56482	-330.71503	-41.95757	588.92230	627.05713	114.34200	586.40234	611.45447	
2552	25.510	-251.53348	19.60167	-165.15797	156.18109	18.38609	-210.29707	-185.52959	16.75103	439.11331	217.52580	19.76819	426.85425	-70.51596	1142.84900	-586.33429	-144.78870	575.26038	-312.45041	14.70844	578.69757	-330.26059	-42.88458	588.39471	626.09406	114.11980	586.07324	611.72083	
2553	25.520	-251.53816	19.81114	-164.99954	156.14322	18.61757	-210.22173	-185.58961	16.36889	439.18961	217.59964	19.47485	426.95877	-71.48918	1143.25757	-586.05103	-145.11662	575.34351	-312.23532	14.33131	578.92786	-329.94971	-43.03971	588.00610	626.37354	114.11239	585.80347	611.59937	
